<?xml version="1.0" standalone="no"?>
<!DOCTYPE svg PUBLIC "-//W3C//DTD SVG 20010904//EN"
 "http://www.w3.org/TR/2001/REC-SVG-20010904/DTD/svg10.dtd">
<svg version="1.0" xmlns="http://www.w3.org/2000/svg"
 width="800.000000pt" height="800.000000pt" viewBox="0 0 800.000000 800.000000"
 preserveAspectRatio="xMidYMid meet">
<metadata>
Created by potrace 1.14, written by Peter Selinger 2001-2017
</metadata>
<g transform="translate(0.000000,800.000000) scale(0.100000,-0.100000)"
fill="#000000" stroke="none">
<path d="M3750 7994 c-853 -62 -1629 -368 -2292 -906 -155 -126 -442 -415
-570 -576 -484 -606 -769 -1289 -865 -2072 -24 -204 -24 -676 0 -880 38 -303
99 -576 192 -850 151 -443 372 -844 673 -1222 136 -171 429 -464 600 -600 607
-484 1289 -769 2072 -865 204 -24 676 -24 880 0 794 98 1488 391 2102 889 155
126 442 415 570 576 484 606 769 1289 865 2072 24 204 24 676 0 880 -98 794
-391 1488 -889 2102 -126 155 -415 442 -576 570 -603 481 -1294 771 -2062 863
-129 16 -577 28 -700 19z m-736 -1649 c213 -56 387 -239 432 -455 32 -154 -3
-330 -93 -463 -79 -117 -186 -194 -331 -237 -63 -19 -89 -22 -185 -17 -130 6
-204 28 -298 89 -182 117 -291 331 -275 541 7 97 49 223 100 300 72 109 200
201 331 238 78 23 240 24 319 4z m2220 0 c213 -56 387 -239 432 -455 32 -154
-3 -330 -93 -463 -79 -117 -186 -194 -331 -237 -63 -19 -89 -22 -185 -17 -130
6 -204 28 -298 89 -184 118 -291 331 -275 545 19 253 190 465 431 534 78 23
240 24 319 4z m-1864 -3095 c5 -769 8 -875 23 -954 38 -192 88 -299 179 -381
107 -96 227 -129 443 -122 167 5 243 26 337 90 106 73 165 178 210 374 21 96
22 115 27 978 l6 880 535 0 535 0 3 -860 c2 -521 -1 -926 -8 -1027 -26 -419
-124 -686 -331 -903 -136 -141 -273 -225 -489 -295 -281 -92 -676 -133 -1060
-111 -533 32 -876 146 -1112 370 -204 193 -317 451 -357 813 -7 63 -11 437
-11 1058 l0 960 533 -2 532 -3 5 -865z"/>
</g>
</svg>
